<svg id="Layer_1" data-name="Layer 1" xmlns="http://www.w3.org/2000/svg" xmlns:xlink="http://www.w3.org/1999/xlink" viewBox="0 0 520.67 188.77"><defs><clipPath id="clip-path" transform="translate(-12.87 -4.76)"><path d="M165.43,91.76l-50.84,50.88,50.84,50.89h-58.1L85.54,171.69,56.45,142.64l50.88-50.88Zm-58.1-87L12.87,99l29.05,29.1L165.43,4.76Z" fill="none"/></clipPath></defs><path d="M165.43,91.76l-50.84,50.88,50.84,50.89h-58.1L85.54,171.69,56.45,142.64l50.88-50.88Zm-58.1-87L12.87,99l29.05,29.1L165.43,4.76Z" transform="translate(-12.87 -4.76)"/><g clip-path="url(#clip-path)"><path d="M85.54,171.69l79.89-79.93h-58.1L56.49,142.64Z" transform="translate(-12.87 -4.76)"/></g><path d="M165.43,91.76l-50.84,50.88,50.84,50.89h-58.1L85.54,171.69,56.45,142.64l50.88-50.88Zm-58.1-87L12.87,99l29.05,29.1L165.43,4.76Z" transform="translate(-12.87 -4.76)"/><g clip-path="url(#clip-path)"><path d="M12.87,99,107.33,4.76h58.1L41.92,128.12Z" transform="translate(-12.87 -4.76)"/></g><path d="M165.43,91.76l-50.84,50.88,50.84,50.89h-58.1L85.54,171.69,56.45,142.64l50.88-50.88Zm-58.1-87L12.87,99l29.05,29.1L165.43,4.76Z" transform="translate(-12.87 -4.76)"/><g clip-path="url(#clip-path)"><path d="M107.33,193.48h58.1l-50.84-50.84-29,29.05Z" transform="translate(-12.87 -4.76)"/></g><path d="M165.43,91.76l-50.84,50.88,50.84,50.89h-58.1L85.54,171.69,56.45,142.64l50.88-50.88Zm-58.1-87L12.87,99l29.05,29.1L165.43,4.76Z" transform="translate(-12.87 -4.76)"/><g clip-path="url(#clip-path)"><path d="M114.59,142.64l-29,29.05,43.11-14.9Z" transform="translate(-12.87 -4.76)"/></g><path d="M165.43,91.76l-50.84,50.88,50.84,50.89h-58.1L85.54,171.69,56.45,142.64l50.88-50.88Zm-58.1-87L12.87,99l29.05,29.1L165.43,4.76Z" transform="translate(-12.87 -4.76)"/><g clip-path="url(#clip-path)"><path d="M56.49,142.64l29.05-29.09,29.05,29.09-29,29.05Z" transform="translate(-12.87 -4.76)"/></g><path d="M165.43,91.76l-50.84,50.88,50.84,50.89h-58.1L85.54,171.69,56.45,142.64l50.88-50.88Zm-58.1-87L12.87,99l29.05,29.1L165.43,4.76Z" transform="translate(-12.87 -4.76)"/><path d="M183.84,55.22h50.93v9.69H194.52V95h36.36v9.7H194.52v37.86H184.31V55.22Z" transform="translate(-12.87 -4.76)"/><path d="M246.9,55.22h10.17V143H246.9Z" transform="translate(-12.87 -4.76)"/><path d="M295.39,145a23.1,23.1,0,0,1-17.47-6.8,27.39,27.39,0,0,1-5.81-18.46V80.47h10.21v37.81a20.4,20.4,0,0,0,3.85,13.12,14.76,14.76,0,0,0,11.19,4.36,15,15,0,0,0,9.37-2.91,18.2,18.2,0,0,0,6.33-7.31,22,22,0,0,0,2.43-9.7V80.47h10.17V143h-9.88v-9.37h-.47a21.42,21.42,0,0,1-8.25,7.78A19.51,19.51,0,0,1,295.39,145Z" transform="translate(-12.87 -4.76)"/><path d="M366.24,144a19.42,19.42,0,0,1-7.22-1.45,20.85,20.85,0,0,1-5.34-3.42,20.24,20.24,0,0,1-4-5.34,16,16,0,0,1-1.36-7.22V89.65h-11.2V80.28h11.2V63h10.17V80.47h15v9.37h-15v34a12.34,12.34,0,0,0,1.92,7.45,8.18,8.18,0,0,0,6.79,2.9,11.12,11.12,0,0,0,6.8-2v10.21c-1.46.47-2.44,1-3.89,1.45Z" transform="translate(-12.87 -4.76)"/><path d="M410.56,144a19.29,19.29,0,0,1-7.31-1.45,20.5,20.5,0,0,1-5.29-3.42,19.14,19.14,0,0,1-3.89-5.34,15.85,15.85,0,0,1-1.64-7.22V89.65h-10V80.28H393.6V63h10.21V80.47h15v9.37H403.58v34a12.34,12.34,0,0,0,1.92,7.45,8.17,8.17,0,0,0,6.79,2.9,11.12,11.12,0,0,0,6.8-2v10.21c-1.46.47-2.44,1-3.89,1.45Z" transform="translate(-12.87 -4.76)"/><path d="M456.43,145a30.08,30.08,0,0,1-16-4.36A32.48,32.48,0,0,1,429.3,129a38.61,38.61,0,0,1-3.84-17,37.71,37.71,0,0,1,3.84-16.49A32.29,32.29,0,0,1,440,83.37a31.6,31.6,0,0,1,32,0A28.24,28.24,0,0,1,482.2,94.53,35.63,35.63,0,0,1,486.08,111a6.6,6.6,0,0,1-.51,3.37h-50A29.48,29.48,0,0,0,439,126.57a18.8,18.8,0,0,0,7.78,7.27,23.37,23.37,0,0,0,9.7,2.43,20.42,20.42,0,0,0,18.46-11.15l8.71,4.36a33.47,33.47,0,0,1-11.15,12.13,35.35,35.35,0,0,1-16,3.42Zm17.94-39.78a15.69,15.69,0,0,0-2.43-7.78,20.83,20.83,0,0,0-6.28-6.79A18.77,18.77,0,0,0,455,87.73a17.12,17.12,0,0,0-12.6,4.69,24.1,24.1,0,0,0-6.79,12.6Z" transform="translate(-12.87 -4.76)"/><path d="M497.66,80.47h9.7V90.64h.51a15.09,15.09,0,0,1,7.26-8.25A18.74,18.74,0,0,1,526.28,79a15.84,15.84,0,0,1,7.27,1.45V91.62a16.67,16.67,0,0,0-8.72-2,16.46,16.46,0,0,0-8.24,2.44,29.59,29.59,0,0,0-6.33,6.79,20,20,0,0,0-2.39,9.37v34.91H497.66Z" transform="translate(-12.87 -4.76)"/></svg>