<svg id="Layer_1" data-name="Layer 1" xmlns="http://www.w3.org/2000/svg" viewBox="0 0 2490.6 1554.23"><path d="M127,802A69.84,69.84,0,0,0,104.26,786a66.61,66.61,0,0,0-27.1-5.58,66.37,66.37,0,0,0-27.09,5.38,69.84,69.84,0,0,0-22.72,15.94,67.63,67.63,0,0,0-15.14,22.91A75.16,75.16,0,0,0,7,851.78a66.28,66.28,0,0,0,5.18,27.1,71.39,71.39,0,0,0,15.34,22.91,66.5,66.5,0,0,0,49.81,20.92,68.9,68.9,0,0,0,49.82-20.92,66.19,66.19,0,0,0,15.54-22.71,70.94,70.94,0,0,0,0-54.2A68.21,68.21,0,0,0,127,802ZM960.82,640.18a971.44,971.44,0,0,0,6.38,133.89h-2.39c-5.58-11-17.93-31.28-36.86-61L473.66,0H335.79V910.36h106V252.25a935.56,935.56,0,0,0-5-124.93h4a306,306,0,0,0,28.89,57L936.32,910.36h130.5V0h-106ZM1785.5,810.34H1410.92V494.93h327.76v-96H1410.92V96.44h351.67V0H1302.33V910.36h482.58ZM1866.6,0V96.44h261V910.36h106V96.44h264V0ZM827.73,1136.7a200.24,200.24,0,0,0-70.14,47.22A223.37,223.37,0,0,0,711,1259.24a226.16,226.16,0,0,0-13.75,87.47A213.25,213.25,0,0,0,751,1496.54a185.94,185.94,0,0,0,143.06,57.38,244.62,244.62,0,0,0,115.56-24.5l.4-46.43a205.15,205.15,0,0,1-109,27.9,143.57,143.57,0,0,1-60-10.56,141,141,0,0,1-50-34.87,173.79,173.79,0,0,1-41.84-122.34,181.68,181.68,0,0,1,44.83-128.91,151.72,151.72,0,0,1,117-50,197.88,197.88,0,0,1,99.62,24.9v-50A243.59,243.59,0,0,0,911,1121.56a215.81,215.81,0,0,0-83.28,15.14Zm496.72,142.66a133.9,133.9,0,0,0-104-41.44,146.62,146.62,0,0,0-60,9.76,153.92,153.92,0,0,0-51.21,32.68,162.7,162.7,0,0,0-32.48,54.79,158.24,158.24,0,0,0-8.76,63.16,156.32,156.32,0,0,0,39.25,111.38,141.08,141.08,0,0,0,48.22,33.87,137.12,137.12,0,0,0,57.78,10.56,142.84,142.84,0,0,0,59-11,139.54,139.54,0,0,0,49.21-34.46,160.62,160.62,0,0,0,40.25-114.77,165,165,0,0,0-37.26-114.57ZM1288,1484a87.54,87.54,0,0,1-71.14,30.08,93.69,93.69,0,0,1-39.84-7.17,92.09,92.09,0,0,1-32.88-23.71,122,122,0,0,1-26.9-83.88,129.81,129.81,0,0,1,26.9-86.87,93.09,93.09,0,0,1,32.68-24.11,91.44,91.44,0,0,1,39.85-7.37,85.53,85.53,0,0,1,39.25,7.17A88.16,88.16,0,0,1,1288,1312a132.9,132.9,0,0,1,24.9,86.47A130.47,130.47,0,0,1,1288,1484Zm230.92-224.15a105,105,0,0,0-31.28,50v-62.57h-49.81V1547h49.81V1394.13a134.41,134.41,0,0,1,20.32-78.9,61,61,0,0,1,49.82-28.89,57.33,57.33,0,0,1,36.26,9.56v-49.41a80.4,80.4,0,0,0-28.29-4A70.28,70.28,0,0,0,1518.91,1259.84Zm366.62,123.73a158.73,158.73,0,0,0-31.88-105.8,114,114,0,0,0-41.05-29.49,111.82,111.82,0,0,0-49.61-8.57,126.6,126.6,0,0,0-99.62,44,163.7,163.7,0,0,0-39.26,113.77,167,167,0,0,0,36.27,114.76,126.37,126.37,0,0,0,99.62,41,173.12,173.12,0,0,0,104-28.5v-45a149.54,149.54,0,0,1-92.65,33.48,89.76,89.76,0,0,1-38.26-6,92.32,92.32,0,0,1-32.47-21.12,111.14,111.14,0,0,1-25.31-76.91h210.6Zm-210.61-14a110,110,0,0,1,29.29-63.36,76.93,76.93,0,0,1,57.38-24.51,67.82,67.82,0,0,1,30.09,5.18,66.54,66.54,0,0,1,24.71,17.74,99.73,99.73,0,0,1,19.92,64.35Z" transform="translate(-7.01)"/></svg>