<svg id="Win_Azure" data-name="Win Azure" xmlns="http://www.w3.org/2000/svg" viewBox="0 0 2268.8 333.93"><polygon points="147.96 164.26 333.93 164.26 333.93 0 147.96 25.97 147.96 164.26"/><polygon points="142.4 164.26 142.4 26.76 0 46.66 0 164.26 142.4 164.26"/><polygon points="147.96 169.82 147.96 307.97 333.93 333.93 333.93 169.82 147.96 169.82"/><polygon points="142.4 169.82 0 169.82 0 287.32 142.4 307.2 142.4 169.82"/><path d="M817.29,88.51a14.22,14.22,0,0,1-4.47,10.68,15.55,15.55,0,0,1-21.23.14,14.27,14.27,0,0,1-4.34-10.82,14.47,14.47,0,0,1,4.27-10.41,14.24,14.24,0,0,1,10.68-4.4A14.62,14.62,0,0,1,813,78,14.35,14.35,0,0,1,817.29,88.51Z" transform="translate(-77.75 -11.44)"/><path d="M772.05,78.12,715.42,278.65H687.88L643.14,119.78h-.55L597.76,278.65H570.41L511.82,78.12h25.73L583.93,245.5h.57L632.87,78.12h22.71l45.85,167.94H702L746.62,78.12Z" transform="translate(-77.75 -11.44)"/><path d="M814,278.65H791V135.46H814Z" transform="translate(-77.75 -11.44)"/><path d="M967.25,278.65H944.37V197q0-45.45-33.29-45.45a36.45,36.45,0,0,0-28.32,12.78Q871.39,177.13,871.4,197v81.66h-23V135.46h23v23.78H872Q888,132,919,132q23.63,0,36,15.46t12.36,43.64Z" transform="translate(-77.75 -11.44)"/><path d="M1125.34,278.65h-22.93V254.31h-.56q-15.94,27.82-49.22,27.83-27.14,0-43.29-19.51t-16.08-52.08q0-35.56,17.83-57.05T1058.84,132q29.39,0,42.94,23.19h.55V66.65h22.93Zm-22.93-64.75V192.78q0-17.76-11.81-29.49a39.19,39.19,0,0,0-28.74-11.78q-20.71,0-32.87,15.3t-12.17,42.45q0,24.62,11.48,39t30.91,14.33a39.66,39.66,0,0,0,31-13.64q12.18-13.74,12.17-35Z" transform="translate(-77.75 -11.44)"/><path d="M1295.55,206.5q0,34.11-19.38,54.88t-51.94,20.76q-31.76,0-50.69-20.21t-18.94-53.22q0-35.57,19.43-56.14t53.56-20.63q31.89,0,49.91,19.92T1295.55,206.5Zm-23.49.83q0-27-12-41.4t-34.18-14.42q-22.11,0-35,14.75t-12.87,41.6q0,25.74,12.94,40.19t34.9,14.47q22.35,0,34.25-14.27T1272.06,207.33Z" transform="translate(-77.75 -11.44)"/><path d="M1503.69,135.46l-42.91,143.19h-23.72l-32-111.17h-.56L1369.8,278.65h-22.94l-43.21-143.19h24L1359.3,251h1.13l35.37-115.5h21L1448.67,251h1.12l31.32-115.5Z" transform="translate(-77.75 -11.44)"/><path d="M1600.93,240.34a37,37,0,0,1-14.33,30.19q-14.32,11.61-38.1,11.61-20.28,0-35.56-8.67V248.9a57.73,57.73,0,0,0,37.19,13.71q27.27,0,27.28-20a17.53,17.53,0,0,0-5.32-13.2q-5.31-5.11-24.2-13.78-19-8.12-26.85-17.42t-7.82-24.74q0-17.76,14.27-29.65t36.2-11.88a68.46,68.46,0,0,1,30.63,6.72v23.07a53.57,53.57,0,0,0-32.47-10.21q-11.31,0-18.25,5.6a17.69,17.69,0,0,0-6.93,14.39q0,9.51,5.33,14.63t21.94,12.09q20.41,8.67,28.68,18.18T1600.93,240.34Z" transform="translate(-77.75 -11.44)"/><path d="M1842.82,278.65h-26l-21.12-56h-85.16l-20,56.07h-26l76.64-200.52h24.33Zm-55-77.3-34.68-93.83h-.59l-34.27,93.83Z" transform="translate(-77.75 -11.44)"/><path d="M1968.69,142l-84.88,117.18h83.9v19.44h-117.6v-7.13l84.74-116.63h-76.78V135.46h110.62Z" transform="translate(-77.75 -11.44)"/><path d="M2106.14,278.65h-22.93V256h-.55q-14.28,26.14-44.06,26.14-51.33,0-51.31-61.11V135.46h22.92V217.4q0,45.16,34.69,45.17a34.77,34.77,0,0,0,27.68-12.37q10.62-12.36,10.63-32.23V135.46h22.93Z" transform="translate(-77.75 -11.44)"/><path d="M2218.11,158.66c-4.11-3.09-9.92-4.63-17.48-4.63q-15.24,0-24.74,14.33t-9.51,37.26v73h-22.92V135.46h22.92V165h.56a50.57,50.57,0,0,1,14.69-23.42,33.75,33.75,0,0,1,22.79-8.6,37.77,37.77,0,0,1,13.71,1.95Z" transform="translate(-77.75 -11.44)"/><path d="M2346.55,212.79H2245.44q.57,24.19,12.81,37t33.9,12.8a70.18,70.18,0,0,0,44.32-15.66V268.3q-18.73,13.92-49.78,13.84-30.61,0-47.82-19.79t-17.2-54.74a87.24,87.24,0,0,1,8.59-38.8,65.62,65.62,0,0,1,23.72-27.2,61,61,0,0,1,33.56-9.66q27.83,0,43.41,18.12t15.6,50.69Zm-23.5-19.45q-.27-19.84-9.58-30.83t-26.28-11A36.87,36.87,0,0,0,2259.92,163q-11.36,11.46-14.27,30.33Z" transform="translate(-77.75 -11.44)"/></svg>