<svg width="27" height="26" viewBox="0 0 27 26" fill="none" xmlns="http://www.w3.org/2000/svg">
<g clip-path="url(#clip0_63_219)">
<path d="M6.12898 26V8.45785H0.341231V26H6.12898ZM3.23585 6.06133C5.25415 6.06133 6.51043 4.71429 6.51043 3.03095C6.47283 1.30965 5.25422 0 3.27416 0C1.2944 0 -0.000244141 1.30967 -0.000244141 3.03095C-0.000244141 4.71437 1.25574 6.06133 3.19807 6.06133H3.23567H3.23585ZM9.33249 26H15.1202V16.2036C15.1202 15.6793 15.1578 15.1556 15.3107 14.7808C15.7291 13.7333 16.6814 12.6483 18.2802 12.6483C20.3746 12.6483 21.2124 14.257 21.2124 16.6152V25.9999H26.9998V15.9414C26.9998 10.5531 24.1444 8.04601 20.3365 8.04601C17.2142 8.04601 15.8433 9.80418 15.0817 11.0017H15.1204V8.45748H9.33261C9.40857 10.1035 9.33261 25.9997 9.33261 25.9997L9.33249 26Z" fill="#36C6F4"/>
</g>
<defs>
<clipPath id="clip0_63_219">
<rect width="27" height="26" fill="white"/>
</clipPath>
</defs>
</svg>
