<svg width="61" height="61" viewBox="0 0 61 61" fill="none" xmlns="http://www.w3.org/2000/svg">
<circle cx="30.5" cy="30.5" r="30.5" fill="#252525"/>
<g clip-path="url(#clip0_226_25)">
<path d="M24.583 42V23.1085H18.3665V42H24.583ZM21.4756 20.5276C23.6434 20.5276 24.9927 19.0769 24.9927 17.2641C24.9523 15.4104 23.6434 14 21.5167 14C19.3903 14 17.9998 15.4104 17.9998 17.2641C17.9998 19.077 19.3488 20.5276 21.435 20.5276H21.4754H21.4756ZM28.0238 42H34.2403V31.45C34.2403 30.8854 34.2807 30.3214 34.4448 29.9178C34.8942 28.7897 35.9171 27.6213 37.6343 27.6213C39.8838 27.6213 40.7837 29.3537 40.7837 31.8933V41.9999H46.9998V31.1676C46.9998 25.3649 43.9329 22.6649 39.8429 22.6649C36.4893 22.6649 35.0169 24.5583 34.1989 25.8479H34.2404V23.1081H28.0239C28.1055 24.8807 28.0239 41.9996 28.0239 41.9996L28.0238 42Z" fill="#36C6F4"/>
</g>
<defs>
<clipPath id="clip0_226_25">
<rect width="29" height="28" fill="white" transform="translate(18 14)"/>
</clipPath>
</defs>
</svg>
