<svg width="63" height="63" viewBox="0 0 63 63" fill="none" xmlns="http://www.w3.org/2000/svg">
<g clip-path="url(#clip0_51_4713)">
<path d="M41.7859 32.1718L58.2776 15.722C58.3867 15.6142 58.4672 15.481 58.5121 15.3345L62.9552 1.29078C63.0083 1.12384 63.0143 0.945515 62.9727 0.775379C62.931 0.605244 62.8432 0.449869 62.7189 0.326301C62.5946 0.202733 62.4387 0.115748 62.2682 0.074889C62.0977 0.0340304 61.9192 0.0408774 61.7523 0.0946787L47.753 4.60304C47.6091 4.64924 47.4782 4.7285 47.3706 4.83446L30.904 21.2592L24.7025 15.0278C25.1225 12.8644 24.9646 10.6286 24.2449 8.54554C23.5251 6.46245 22.2688 4.60548 20.6024 3.16151C18.936 1.71755 16.9183 0.73751 14.7523 0.320027C12.5863 -0.0974561 10.3484 0.0623418 8.26388 0.78334C8.11272 0.837549 7.97769 0.928988 7.8713 1.04919C7.76491 1.16939 7.69061 1.31446 7.65526 1.47098C7.61992 1.62749 7.62469 1.79039 7.66912 1.94457C7.71354 2.09876 7.7962 2.23925 7.90943 2.35304L15.9083 10.3744L10.2873 16.0092L2.29963 7.99338C2.18484 7.8811 2.04374 7.79929 1.8892 7.75542C1.73466 7.71155 1.57159 7.70701 1.41484 7.74221C1.25809 7.7774 1.11265 7.85122 0.991769 7.95694C0.870886 8.06266 0.778405 8.19691 0.72275 8.34747C-0.119298 10.7227 -0.22927 13.2955 0.407033 15.7337C1.04334 18.172 2.3967 20.3637 4.29237 22.0259L1.45677 24.8726C1.27833 25.0513 1.17812 25.2934 1.17812 25.5459C1.17812 25.7983 1.27833 26.0405 1.45677 26.2192C2.42127 27.149 3.57622 27.8587 4.84193 28.2994C6.10764 28.74 7.45397 28.9011 8.78804 28.7714C10.1221 28.6418 11.4121 28.2246 12.5691 27.5486C13.7261 26.8726 14.7226 25.9539 15.4896 24.8558L21.3813 30.7666L4.63565 47.4952C3.51928 46.0203 1.80843 47.7322 3.28484 48.8447L1.08278 51.0389C0.399007 51.7268 0.0152672 52.6569 0.0152672 53.6263C0.0152672 54.5957 0.399007 55.5258 1.08278 56.2136L6.80143 61.9237C7.48994 62.6087 8.42247 62.9928 9.39422 62.9915C11.2725 63.195 12.975 60.8475 14.1891 59.7239C15.3054 61.1988 17.0163 59.4869 15.5399 58.3772L32.2855 41.682L51.5431 61.0175C52.1694 61.6413 52.9126 62.1356 53.7303 62.4724C54.5479 62.8092 55.4239 62.9818 56.3083 62.9804C57.1927 62.979 58.0681 62.8035 58.8847 62.4641C59.7012 62.1247 60.4428 61.6279 61.0672 61.0022C61.6915 60.3765 62.1864 59.634 62.5235 58.8172C62.8606 58.0004 63.0334 57.1253 63.032 56.2418C63.0306 55.3583 62.855 54.4838 62.5152 53.6681C62.1754 52.8524 61.6782 52.1115 61.0518 51.4878L41.7859 32.1718ZM60.5774 2.47572L57.1585 13.2768L49.8071 5.94412L60.5774 2.47572ZM2.10706 10.5027L8.93092 17.3614L5.64039 20.6737C4.20405 19.4416 3.12033 17.8513 2.49964 16.0646C1.87895 14.2778 1.74349 12.3587 2.10706 10.5027ZM16.165 22.8289C15.1157 21.7889 13.9323 23.8995 12.7768 24.8726C11.5714 26.0771 9.96973 26.8044 8.26863 26.9197C6.56753 27.0351 4.88222 26.5306 3.52486 25.4999L17.9289 11.0464C18.1058 10.8674 18.205 10.626 18.205 10.3744C18.205 10.1229 18.1058 9.88147 17.9289 9.70249L10.4129 2.16066C12.1453 1.83707 13.9309 1.94788 15.6099 2.48317C17.2888 3.01846 18.8086 3.9615 20.033 5.22779C21.2575 6.49408 22.1483 8.04405 22.6257 9.73882C23.1031 11.4336 23.1521 13.2202 22.7684 14.9385C22.6919 15.1138 22.6698 15.308 22.7052 15.496C22.7405 15.6839 22.8316 15.8569 22.9666 15.9924L29.5588 22.6058L26.7455 25.4162L20.7952 19.4748C20.6135 19.3113 20.376 19.2238 20.1315 19.2302C19.8871 19.2365 19.6544 19.3364 19.4816 19.5091C19.3087 19.6818 19.2087 19.9142 19.2023 20.1584C19.1959 20.4026 19.2836 20.6399 19.4472 20.8214L25.3975 26.7657L22.7349 29.4227L16.165 22.8289ZM48.0349 6.87256L51.451 10.2796L9.40817 52.2713L5.96973 48.8419L48.0349 6.87256ZM10.625 60.5687C10.2946 60.8967 9.84757 61.0809 9.38166 61.0809C8.91575 61.0809 8.46876 60.8967 8.13829 60.5687L2.41685 54.8642C0.708795 53.0687 3.62254 51.3874 4.6217 50.1885L12.8382 58.3744L10.625 60.5687ZM14.1751 57.025L10.759 53.6179L52.8018 11.6263L56.2374 15.0556L14.1751 57.025ZM59.6675 59.6681C58.7538 60.5467 57.535 61.0376 56.2667 61.0376C54.9985 61.0376 53.7796 60.5467 52.866 59.6681L33.6085 40.3326L36.2822 37.6532L55.1685 56.5203C55.3476 56.6993 55.5906 56.7998 55.8439 56.7998C56.0972 56.7998 56.3402 56.6993 56.5193 56.5203C56.6985 56.3414 56.7991 56.0987 56.7991 55.8456C56.7991 55.5925 56.6985 55.3498 56.5193 55.1709L37.633 36.3038L40.4239 33.5157L59.6815 52.8261C60.5846 53.7357 61.0911 54.9651 61.0905 56.2463C61.09 57.5274 60.5825 58.7564 59.6787 59.6653L59.6675 59.6681Z" fill="#36C6F4"/>
</g>
<defs>
<clipPath id="clip0_51_4713">
<rect width="63" height="63" fill="white"/>
</clipPath>
</defs>
</svg>
