<svg width="45" height="45" viewBox="0 0 45 45" fill="none" xmlns="http://www.w3.org/2000/svg">
<circle cx="22.5" cy="22.5" r="22.5" fill="#252525"/>
<path d="M24.6212 13.4144C24.6523 13.2983 24.7282 13.1993 24.8322 13.1391C24.9362 13.079 25.0599 13.0626 25.176 13.0937C26.7892 13.5275 28.2601 14.3776 29.4413 15.5588C30.6226 16.74 31.4727 18.2109 31.9065 19.8242C31.9227 19.8819 31.9272 19.9423 31.9199 20.0018C31.9126 20.0613 31.8936 20.1188 31.8639 20.1709C31.8342 20.223 31.7944 20.2687 31.7469 20.3053C31.6994 20.342 31.6452 20.3688 31.5872 20.3843C31.5293 20.3998 31.4688 20.4036 31.4094 20.3956C31.35 20.3875 31.2927 20.3678 31.241 20.3374C31.1893 20.3071 31.1441 20.2668 31.108 20.2189C31.072 20.1709 31.0458 20.1163 31.031 20.0582C30.6386 18.5987 29.8695 17.268 28.8008 16.1993C27.7322 15.1306 26.4014 14.3615 24.9419 13.9691C24.8259 13.9381 24.7269 13.8622 24.6667 13.7581C24.6066 13.6541 24.5902 13.5304 24.6212 13.4144V13.4144ZM24.0035 17.4713C24.8485 17.6985 25.6189 18.1438 26.2376 18.7625C26.8563 19.3812 27.3015 20.1516 27.5287 20.9966C27.5436 21.0546 27.5699 21.109 27.606 21.1568C27.6421 21.2045 27.6873 21.2447 27.739 21.2749C27.7906 21.3051 27.8478 21.3247 27.9071 21.3327C27.9665 21.3407 28.0268 21.3368 28.0846 21.3213C28.1424 21.3059 28.1966 21.2791 28.244 21.2426C28.2915 21.206 28.3312 21.1605 28.3609 21.1085C28.3906 21.0566 28.4097 20.9992 28.4171 20.9398C28.4246 20.8804 28.4202 20.8201 28.4042 20.7625C28.1356 19.7638 27.6093 18.8532 26.8781 18.1219C26.1468 17.3907 25.2362 16.8644 24.2376 16.5959C24.1798 16.5797 24.1194 16.5751 24.0599 16.5824C24.0004 16.5897 23.9429 16.6088 23.8908 16.6385C23.8387 16.6682 23.793 16.7079 23.7564 16.7554C23.7197 16.8029 23.6929 16.8572 23.6774 16.9151C23.6619 16.9731 23.6581 17.0335 23.6661 17.0929C23.6742 17.1524 23.6939 17.2096 23.7243 17.2613C23.7546 17.3131 23.7949 17.3583 23.8428 17.3943C23.8908 17.4304 23.9454 17.4565 24.0035 17.4713V17.4713ZM32.7815 28.7764C32.5987 30.1976 31.9047 31.5037 30.8293 32.4506C29.7538 33.3976 28.3704 33.9206 26.9375 33.922C18.1926 33.922 11.0781 26.8075 11.0781 18.0626C11.0795 16.6298 11.6025 15.2464 12.5494 14.171C13.4962 13.0955 14.8022 12.4015 16.2234 12.2187C16.5153 12.1837 16.8108 12.2441 17.0655 12.391C17.3203 12.5378 17.5206 12.7632 17.6367 13.0334L19.9126 18.3436C20.0011 18.5496 20.0372 18.7743 20.0177 18.9977C19.9981 19.2211 19.9235 19.4362 19.8004 19.6236L17.9159 22.5033C17.8732 22.5671 17.8478 22.641 17.842 22.7176C17.8363 22.7942 17.8504 22.871 17.883 22.9405C18.7799 24.77 20.2633 26.2467 22.0969 27.1352C22.1668 27.1676 22.244 27.1814 22.3208 27.175C22.3977 27.1687 22.4716 27.1426 22.5353 27.0992L25.3714 25.208C25.5594 25.0822 25.7759 25.0054 26.0011 24.9847C26.2264 24.964 26.4532 25 26.661 25.0895L31.9668 27.3635C32.237 27.4795 32.4623 27.6798 32.6091 27.9346C32.7559 28.1893 32.8163 28.4846 32.7813 28.7765L32.7815 28.7764ZM31.6097 28.1963L26.304 25.9224C26.2348 25.8926 26.1591 25.8806 26.084 25.8875C26.0089 25.8944 25.9367 25.9199 25.874 25.9618L23.038 27.8531C22.843 27.9836 22.6174 28.0613 22.3834 28.0786C22.1493 28.0958 21.9148 28.0519 21.7028 27.9513C19.6863 26.974 18.055 25.35 17.0687 23.338V23.3381C16.9675 23.1274 16.9225 22.894 16.9381 22.6607C16.9537 22.4274 17.0293 22.2022 17.1577 22.0067L19.0423 19.1275C19.0833 19.0649 19.1081 18.9932 19.1147 18.9188C19.1212 18.8443 19.1091 18.7693 19.0796 18.7006L16.8037 13.3905C16.7692 13.3093 16.7118 13.2399 16.6385 13.1908C16.5652 13.1418 16.4791 13.1152 16.3909 13.1144C16.3729 13.1144 16.3549 13.1155 16.3371 13.1178C15.1347 13.2726 14.0298 13.8598 13.2287 14.7698C12.4277 15.6798 11.9854 16.8503 11.9844 18.0626C11.9844 26.3078 18.6923 33.0158 26.9375 33.0158C28.1498 33.0147 29.3203 32.5724 30.2303 31.7713C31.1402 30.9703 31.7275 29.8653 31.8822 28.6629C31.8933 28.5662 31.8727 28.4684 31.8236 28.3843C31.7744 28.3002 31.6994 28.2343 31.6097 28.1964V28.1963Z" fill="#36C6F4"/>
</svg>
