<svg width="71" height="71" viewBox="0 0 71 71" fill="none" xmlns="http://www.w3.org/2000/svg">
<g opacity="0.1">
<path d="M64.9354 25.7997L64.8614 25.3027L64.7845 25.3205C64.2588 22.8622 63.0478 20.603 61.2917 18.8043C59.5355 17.0056 57.306 15.7409 54.861 15.1565C52.4161 14.5721 49.8556 14.6919 47.4759 15.5021C45.0962 16.3122 42.9945 17.7796 41.414 19.7345C39.8335 21.6894 38.8388 24.0518 38.545 26.5484C38.2512 29.045 38.6703 31.5738 39.7538 33.8421C40.8373 36.1105 42.541 38.0257 44.6676 39.3662C46.7942 40.7066 49.2569 41.4176 51.7708 41.4167C52.4305 41.4167 53.0636 41.3162 53.6937 41.2245C53.4896 41.9108 53.2795 42.609 52.9423 43.2361C52.605 44.1473 52.0784 44.9372 51.5548 45.733C51.117 46.5938 50.3448 47.1766 49.7768 47.9132C49.1822 48.6292 48.3716 49.1055 47.7297 49.7001C47.0996 50.3213 46.2742 50.632 45.6174 51.0698C44.9311 51.4632 44.3335 51.8981 43.6945 52.1052L42.1 52.762L40.6977 53.3447L42.1296 59.081L43.8957 58.655C44.4607 58.513 45.15 58.3473 45.934 58.1491C46.7357 58.0012 47.5906 57.5959 48.5432 57.2261C49.481 56.803 50.5726 56.522 51.5844 55.8445C52.6021 55.1996 53.7765 54.6612 54.8119 53.7974C55.8148 52.9069 57.0248 52.1348 57.9182 51.0047C58.8944 49.9456 59.8588 48.8333 60.6073 47.5671C61.4741 46.3601 62.0628 45.0348 62.6841 43.7242C63.2461 42.4137 63.6988 41.0736 64.0686 39.7719C64.7697 37.1627 65.0833 34.6836 65.2046 32.5625C65.3051 30.4384 65.246 28.6722 65.1217 27.3942C65.0802 26.8605 65.018 26.3286 64.9354 25.7997ZM32.3937 25.7997L32.3197 25.3027L32.2428 25.3205C31.7171 22.8622 30.5062 20.603 28.75 18.8043C26.9939 17.0056 24.7643 15.7409 22.3194 15.1565C19.8744 14.5721 17.3139 14.6919 14.9342 15.5021C12.5545 16.3122 10.4528 17.7796 8.87232 19.7345C7.29183 21.6894 6.29715 24.0518 6.00335 26.5484C5.70955 29.045 6.12865 31.5738 7.21216 33.8421C8.29566 36.1105 9.99929 38.0257 12.1259 39.3662C14.2525 40.7066 16.7153 41.4176 19.2291 41.4167C19.8888 41.4167 20.5219 41.3162 21.152 41.2245C20.9479 41.9108 20.7378 42.609 20.4006 43.2361C20.0633 44.1473 19.5368 44.9372 19.0131 45.733C18.5753 46.5938 17.8032 47.1766 17.2352 47.9132C16.6406 48.6292 15.83 49.1055 15.188 49.7001C14.5579 50.3213 13.7325 50.632 13.0758 51.0698C12.3894 51.4632 11.7918 51.8981 11.1528 52.1052L9.5583 52.762C8.66784 53.1258 8.15901 53.3388 8.15901 53.3388L9.59085 59.075L11.357 58.649C11.922 58.507 12.6113 58.3414 13.3953 58.1432C14.197 57.9952 15.0519 57.59 16.0045 57.2202C16.9423 56.7971 18.0339 56.5161 19.0457 55.8386C20.0633 55.1937 21.2378 54.6553 22.2732 53.7915C23.2761 52.901 24.4861 52.1289 25.3795 50.9988C26.3557 49.9397 27.3201 48.8274 28.0686 47.5612C28.9354 46.3542 29.5241 45.0289 30.1453 43.7183C30.7074 42.4078 31.1601 41.0677 31.5298 39.766C32.231 37.1567 32.5446 34.6777 32.6658 32.5565C32.7664 30.4325 32.7073 28.6663 32.583 27.3883C32.5388 26.8567 32.4757 26.3268 32.3937 25.7997Z" fill="white"/>
</g>
</svg>
