<svg width="59" height="59" viewBox="0 0 59 59" fill="none" xmlns="http://www.w3.org/2000/svg">
<g clip-path="url(#clip0_51_4706)">
<path fill-rule="evenodd" clip-rule="evenodd" d="M0.983333 39.3333C1.52712 39.3333 1.96667 38.8938 1.96667 38.35V27.5333H54.0833C54.6271 27.5333 55.0667 27.0938 55.0667 26.55C55.0667 26.0062 54.6271 25.5667 54.0833 25.5667H0.983333C0.43955 25.5667 0 26.0062 0 26.55V38.35C0 38.8938 0.43955 39.3333 0.983333 39.3333ZM10.8167 33.4333C10.2729 33.4333 9.83333 33.8729 9.83333 34.4167C9.83333 34.9604 10.2729 35.4 10.8167 35.4H28.5167C29.0604 35.4 29.5 34.9604 29.5 34.4167C29.5 33.8729 29.0604 33.4333 28.5167 33.4333H10.8167ZM38.35 33.4333C37.8072 33.4333 37.3667 33.8739 37.3667 34.4167C37.3667 34.9595 37.8072 35.4 38.35 35.4C38.8928 35.4 39.3333 34.9595 39.3333 34.4167C39.3333 33.8739 38.8928 33.4333 38.35 33.4333ZM38.35 31.4667C39.9764 31.4667 41.3 32.7902 41.3 34.4167C41.3 36.0431 39.9764 37.3667 38.35 37.3667C36.7236 37.3667 35.4 36.0431 35.4 34.4167C35.4 32.7902 36.7236 31.4667 38.35 31.4667ZM46.2167 33.4333C45.6739 33.4333 45.2333 33.8739 45.2333 34.4167C45.2333 34.9595 45.6739 35.4 46.2167 35.4C46.7595 35.4 47.2 34.9595 47.2 34.4167C47.2 33.8739 46.7595 33.4333 46.2167 33.4333ZM46.2167 31.4667C47.8431 31.4667 49.1667 32.7902 49.1667 34.4167C49.1667 36.0431 47.8431 37.3667 46.2167 37.3667C44.5902 37.3667 43.2667 36.0431 43.2667 34.4167C43.2667 32.7902 44.5902 31.4667 46.2167 31.4667ZM10.8167 49.1667C10.2729 49.1667 9.83333 49.6062 9.83333 50.15C9.83333 50.6938 10.2729 51.1333 10.8167 51.1333H28.5167C29.0604 51.1333 29.5 50.6938 29.5 50.15C29.5 49.6062 29.0604 49.1667 28.5167 49.1667H10.8167ZM38.35 49.1667C37.8072 49.1667 37.3667 49.6072 37.3667 50.15C37.3667 50.6928 37.8072 51.1333 38.35 51.1333C38.8928 51.1333 39.3333 50.6928 39.3333 50.15C39.3333 49.6072 38.8928 49.1667 38.35 49.1667ZM38.35 47.2C39.9764 47.2 41.3 48.5236 41.3 50.15C41.3 51.7764 39.9764 53.1 38.35 53.1C36.7236 53.1 35.4 51.7764 35.4 50.15C35.4 48.5236 36.7236 47.2 38.35 47.2ZM46.2167 49.1667C45.6739 49.1667 45.2333 49.6072 45.2333 50.15C45.2333 50.6928 45.6739 51.1333 46.2167 51.1333C46.7595 51.1333 47.2 50.6928 47.2 50.15C47.2 49.6072 46.7595 49.1667 46.2167 49.1667ZM46.2167 47.2C47.8431 47.2 49.1667 48.5236 49.1667 50.15C49.1667 51.7764 47.8431 53.1 46.2167 53.1C44.5902 53.1 43.2667 51.7764 43.2667 50.15C43.2667 48.5236 44.5902 47.2 46.2167 47.2ZM59 4.91667V54.0833C59 56.6105 56.6105 59 54.0833 59H4.91667C2.3895 59 0 56.6105 0 54.0833V42.2833C0 41.7396 0.43955 41.3 0.983333 41.3H54.0833C54.6271 41.3 55.0667 41.7396 55.0667 42.2833C55.0667 42.8271 54.6271 43.2667 54.0833 43.2667H1.96667V54.0833C1.96667 55.517 3.48297 57.0333 4.91667 57.0333H54.0833C55.517 57.0333 57.0333 55.517 57.0333 54.0833V4.91667C57.0333 3.48297 55.517 1.96667 54.0833 1.96667H4.91667C3.48297 1.96667 1.96667 3.48297 1.96667 4.91667V22.6167C1.96667 23.1604 1.52712 23.6 0.983333 23.6C0.43955 23.6 0 23.1604 0 22.6167V4.91667C0 2.3895 2.3895 0 4.91667 0H54.0833C56.6105 0 59 2.3895 59 4.91667Z" fill="#36C6F4"/>
</g>
<defs>
<clipPath id="clip0_51_4706">
<rect width="59" height="59" fill="white"/>
</clipPath>
</defs>
</svg>
