<svg width="61" height="81" viewBox="0 0 61 81" fill="none" xmlns="http://www.w3.org/2000/svg">
<g clip-path="url(#clip0_51_4710)">
<path d="M7.17072 39.2377C7.60532 35.9435 8.95739 32.9198 10.9553 30.4372C13.2248 27.6119 16.3455 25.4839 19.9128 24.4379L20.625 24.2275L21.1562 24.7445C22.3815 25.9347 23.8422 26.8965 25.4599 27.5458C27.0111 28.1709 28.7193 28.5196 30.506 28.5196C32.2926 28.5196 33.9948 28.1709 35.546 27.5458C37.1637 26.8965 38.6244 25.9347 39.8497 24.7445L40.3809 24.2275L41.0932 24.4379C44.6665 25.4839 47.7811 27.6179 50.0506 30.4372C52.0485 32.9198 53.4006 35.9435 53.8352 39.2377H55.7788C57.2093 39.2377 58.5191 39.8208 59.4608 40.7646C60.4084 41.7083 60.9939 43.0068 60.9939 44.4315V70.7909C60.9939 72.5522 60.2696 74.1572 59.1046 75.3174C57.9397 76.4776 56.3281 77.1989 54.5595 77.1989H49.5375V78.4613H55.7909V80.9921H5.08226V78.4613H11.4563V77.1989H6.42829C4.65974 77.1989 3.04812 76.4776 1.88317 75.3174C0.718219 74.1572 -0.00610352 72.5522 -0.00610352 70.7909V44.4315C-0.00610352 43.0068 0.57939 41.7023 1.52705 40.7646C2.4747 39.8208 3.77848 39.2377 5.20902 39.2377H7.15262H7.17072ZM27.9588 56.953H33.0411V59.4837H27.9588V56.953ZM46.9964 77.205H14.0035V78.4673H46.9964V77.205ZM51.2699 39.2377C50.8534 36.5386 49.7186 34.062 48.0708 32.0182C46.26 29.7699 43.8335 28.0327 41.0509 27.0709C39.7109 28.2491 38.1717 29.2109 36.4937 29.8842C34.6406 30.6356 32.6125 31.0443 30.4999 31.0443C28.3813 31.0443 26.3592 30.6296 24.5062 29.8842C22.8282 29.2049 21.289 28.2491 19.949 27.0709C17.1664 28.0267 14.7399 29.7699 12.9291 32.0182C11.2813 34.062 10.1465 36.5386 9.72999 39.2377H51.2759H51.2699ZM55.7727 41.7685H5.22712C4.48469 41.7685 3.8147 42.069 3.33182 42.5499L3.32578 42.5559C2.8429 43.0368 2.5411 43.7041 2.5411 44.4435V70.8029C2.5411 71.8669 2.98173 72.8348 3.6819 73.5381C4.38812 74.2414 5.35992 74.6742 6.42829 74.6742H54.5595C55.6279 74.6742 56.5997 74.2354 57.3059 73.5381C58.0121 72.8348 58.4467 71.8669 58.4467 70.8029V44.4435C58.4467 43.7041 58.1449 43.0368 57.662 42.5559L57.656 42.5499C57.1731 42.069 56.5031 41.7685 55.7607 41.7685H55.7727ZM30.4999 0.0020752C33.9163 0.0020752 37.0128 1.38467 39.2522 3.61486C41.4915 5.84504 42.8798 8.92883 42.8798 12.3312C42.8798 15.7336 41.4915 18.8114 39.2522 21.0416L39.2461 21.0476C37.0068 23.2778 33.9103 24.6604 30.4999 24.6604C27.0896 24.6604 23.9931 23.2778 21.7537 21.0476L21.7477 21.0416C19.5083 18.8114 18.1201 15.7276 18.1201 12.3312C18.1201 8.93484 19.5083 5.85105 21.7477 3.62087L21.7537 3.61486C23.9931 1.38467 27.0896 0.0020752 30.4999 0.0020752ZM37.4595 5.40622C35.6788 3.63289 33.2222 2.53884 30.4999 2.53884C27.7777 2.53884 25.321 3.63289 23.5404 5.40021L23.5344 5.40622C21.7598 7.17353 20.6612 9.62614 20.6612 12.3372C20.6612 15.0483 21.7598 17.4949 23.5344 19.2682L23.5404 19.2742C25.315 21.0416 27.7777 22.1356 30.4999 22.1356C33.2161 22.1356 35.6788 21.0355 37.4595 19.2682C39.2341 17.4949 40.3386 15.0423 40.3386 12.3372C40.3386 9.63215 39.2341 7.17954 37.4595 5.40622Z" fill="#36C6F4"/>
</g>
<defs>
<clipPath id="clip0_51_4710">
<rect width="61" height="81" fill="white"/>
</clipPath>
</defs>
</svg>
