<svg width="33" height="33" viewBox="0 0 33 33" fill="none" xmlns="http://www.w3.org/2000/svg">
<path d="M32.5091 6.78842C31.361 7.29717 30.1276 7.64092 28.831 7.79629C30.1688 6.99576 31.1698 5.73581 31.647 4.25154C30.39 4.99816 29.0143 5.52369 27.5797 5.80529C26.615 4.77523 25.3372 4.09249 23.9447 3.86307C22.5521 3.63365 21.1228 3.87038 19.8787 4.53652C18.6345 5.20265 17.645 6.26092 17.0639 7.54701C16.4828 8.83311 16.3426 10.2751 16.665 11.649C14.118 11.5212 11.6264 10.8592 9.35191 9.70604C7.07738 8.5529 5.07074 6.93439 3.4622 4.95554C2.9122 5.90429 2.59596 7.00429 2.59596 8.17579C2.59534 9.23041 2.85505 10.2689 3.35204 11.1991C3.84903 12.1292 4.56793 12.9223 5.44495 13.508C4.42783 13.4757 3.43316 13.2008 2.5437 12.7064V12.7889C2.5436 14.2681 3.05525 15.7017 3.99183 16.8465C4.92841 17.9914 6.23224 18.7769 7.68208 19.0699C6.73853 19.3253 5.74929 19.3629 4.78908 19.1799C5.19814 20.4526 5.99495 21.5656 7.06796 22.3629C8.14097 23.1603 9.43647 23.6022 10.7731 23.6267C8.5041 25.4079 5.70192 26.374 2.81733 26.3698C2.30635 26.3699 1.79581 26.3401 1.28833 26.2804C4.21636 28.163 7.6248 29.1622 11.1058 29.1583C22.8896 29.1583 29.3315 19.3985 29.3315 10.934C29.3315 10.659 29.3246 10.3813 29.3122 10.1063C30.5652 9.20013 31.6468 8.07803 32.5063 6.79254L32.5091 6.78842Z" fill="#36C6F4"/>
</svg>
