<svg width="61" height="61" viewBox="0 0 61 61" fill="none" xmlns="http://www.w3.org/2000/svg">
<circle cx="30.5" cy="30.5" r="30.5" fill="#252525"/>
<path d="M49.4645 20.4054C48.212 20.9604 46.8665 21.3354 45.452 21.5049C46.9115 20.6316 48.0034 19.2571 48.524 17.6379C47.1528 18.4524 45.652 19.0257 44.087 19.3329C43.0346 18.2092 41.6406 17.4644 40.1215 17.2141C38.6024 16.9638 37.0432 17.2221 35.6859 17.9488C34.3286 18.6754 33.2492 19.8299 32.6152 21.2329C31.9813 22.6359 31.8283 24.209 32.18 25.7079C29.4015 25.5684 26.6835 24.8462 24.2022 23.5882C21.7208 22.3303 19.5318 20.5646 17.777 18.4059C17.177 19.4409 16.832 20.6409 16.832 21.9189C16.8313 23.0694 17.1147 24.2022 17.6568 25.217C18.199 26.2317 18.9833 27.0969 19.94 27.7359C18.8304 27.7006 17.7453 27.4007 16.775 26.8614V26.9514C16.7749 28.565 17.3331 30.1289 18.3548 31.3779C19.3765 32.6268 20.7989 33.4838 22.3805 33.8034C21.3512 34.0819 20.272 34.123 19.2245 33.9234C19.6708 35.3118 20.54 36.5259 21.7106 37.3958C22.8811 38.2656 24.2944 38.7476 25.7525 38.7744C23.2773 40.7175 20.2203 41.7715 17.0735 41.7669C16.5161 41.767 15.9591 41.7345 15.4055 41.6694C18.5997 43.7231 22.318 44.8131 26.1155 44.8089C38.9705 44.8089 45.998 34.1619 45.998 24.9279C45.998 24.6279 45.9905 24.3249 45.977 24.0249C47.344 23.0363 48.5239 21.8122 49.4615 20.4099L49.4645 20.4054Z" fill="#36C6F4"/>
</svg>
