<svg xmlns="http://www.w3.org/2000/svg" width="80" height="80" viewBox="0 0 80 80">
  <g id="whatsappbuttn" transform="translate(-93 -3933)" opacity="0.8">
    <circle id="Ellipse_2" data-name="Ellipse 2" cx="40" cy="40" r="40" transform="translate(93 3933)"/>
    <path id="Icon_awesome-whatsapp" data-name="Icon awesome-whatsapp" d="M36.925,8.569A21.345,21.345,0,0,0,21.705,2.25,21.573,21.573,0,0,0,3.054,34.574L0,45.736l11.41-3A21.434,21.434,0,0,0,21.7,45.358h.01A21.742,21.742,0,0,0,43.43,23.809a21.647,21.647,0,0,0-6.5-15.24ZM21.705,41.727a17.838,17.838,0,0,1-9.113-2.495l-.65-.388L5.177,40.621l1.8-6.61-.427-.679a17.929,17.929,0,1,1,33.241-9.522A18.1,18.1,0,0,1,21.705,41.727Zm9.811-13.415c-.533-.272-3.18-1.572-3.674-1.747s-.853-.272-1.212.272-1.386,1.747-1.706,2.116-.63.408-1.163.136c-3.16-1.582-5.235-2.825-7.319-6.406-.553-.951.553-.883,1.58-2.941a1,1,0,0,0-.048-.942c-.136-.272-1.212-2.922-1.658-4-.436-1.048-.882-.9-1.212-.922-.31-.019-.669-.019-1.028-.019a1.991,1.991,0,0,0-1.435.67,6.054,6.054,0,0,0-1.881,4.494c0,2.65,1.929,5.213,2.191,5.572s3.79,5.795,9.19,8.134c3.412,1.475,4.75,1.6,6.456,1.349,1.037-.155,3.18-1.3,3.626-2.563a4.509,4.509,0,0,0,.31-2.563C32.408,28.711,32.049,28.575,31.516,28.313Z" transform="translate(111.15 3949)" fill="#36c6f4"/>
  </g>
</svg>
